<svg width="128.3625" height="87.09497" xmlns="http://www.w3.org/2000/svg">
 <metadata id="metadata3342">image/svg+xml</metadata>
 <defs>
  <clipPath id="clipPath3350" clipPathUnits="userSpaceOnUse">
   <path id="path3352" d="m-261.600006,804.876006l841.89,0l0,-595.276l-841.89,0l0,595.276z"/>
  </clipPath>
  <linearGradient id="linearGradient3480" spreadMethod="pad" y2="0.000001" x2="0.500006" y1="1.000015" x1="0.500006">
   <stop stop-color="#2676b6" id="stop3482" offset="0"/>
   <stop stop-color="#2676b6" id="stop3484" offset="0.516479"/>
   <stop stop-color="#263d86" id="stop3486" offset="0.906586"/>
   <stop stop-color="#263d86" id="stop3488" offset="1"/>
  </linearGradient>
  <linearGradient id="linearGradient3504" spreadMethod="pad" y2="0.499998" x2="0.999997" y1="0.499998" x1="0.00001">
   <stop stop-color="#0f693b" id="stop3506" offset="0"/>
   <stop stop-color="#0f693b" id="stop3508" offset="0.104401"/>
   <stop stop-color="#4aa838" id="stop3510" offset="0.516479"/>
   <stop stop-color="#4aa838" id="stop3512" offset="1"/>
  </linearGradient>
  <linearGradient id="linearGradient3528" spreadMethod="pad" y2="-0.000002" x2="0.499999" y1="0.999999" x1="0.499999">
   <stop stop-color="#2676b6" id="stop3530" offset="0"/>
   <stop stop-color="#2676b6" id="stop3532" offset="0.516479"/>
   <stop stop-color="#263d86" id="stop3534" offset="0.906586"/>
   <stop stop-color="#263d86" id="stop3536" offset="1"/>
  </linearGradient>
 </defs>
 <g>
  <title>background</title>
  <rect fill="none" id="canvas_background" height="89.09497" width="130.3625" y="-1" x="-1"/>
 </g>
 <g>
  <title>Layer 1</title>
  <g transform="matrix(1.25,0,0,-1.25,0,744.095) " id="g3344">
   <g id="g3346">
    <g clip-path="url(#clipPath3350)" id="g3348">
     <g id="g3354">
      <path fill="#2d2c2e" fill-rule="nonzero" id="path3356" d="m111.273041,560.306671c3.225,0 5.796,0.979 8,1.878l0,13.266c-2.815,0.734 -4.856,1.061 -8,1.061c-2.612,0 -4.122,-1.593 -4.122,-8.245c0,-5.307 1.469,-7.96 4.122,-7.96m0,19.226c1.837,0 5.388,-0.573 8,-1.633l0,11.674l2.98,0l0,-32.042l-2.164,0l-0.816,2.408c-1.061,-0.776 -5.225,-2.654 -8,-2.654c-5.918,0 -7.143,6 -7.143,10.981c0,5.551 0.98,11.266 7.143,11.266"/>
     </g>
     <g id="g3358">
      <path fill="#2d2c2e" fill-rule="nonzero" id="path3360" d="m138.902954,569.694397c1.796,0 2.572,0.653 2.572,2.001c0,4.285 -0.816,4.652 -5.224,4.652c-4.614,0 -6.491,-0.04 -6.491,-6.653l9.143,0zm-2.693,9.674c5.101,0 8.285,-0.489 8.285,-7.673c0,-3.144 -1.673,-4.98 -5.592,-4.98l-9.143,0c0,-5.102 0.939,-6.368 4.122,-6.368c3.756,0 7.144,-0.041 10.206,0.409l0,-2.287c-3.307,-0.938 -6.818,-1.142 -10.206,-1.142c-5.509,0 -7.142,2.653 -7.142,11.143c0,9.673 2.775,10.898 9.47,10.898"/>
     </g>
     <g id="g3362">
      <path fill="#2d2c2e" fill-rule="nonzero" id="path3364" d="m149.839569,579.205078l6.776,-17.225l6.858,17.225l3.305,0l-8.694,-21.674l-3.02,0l-8.531,21.674l3.306,0z"/>
     </g>
     <g id="g3366">
      <path fill="#2d2c2e" fill-rule="nonzero" id="path3368" d="m180.98114,569.694397c1.796,0 2.572,0.653 2.572,2.001c0,4.285 -0.816,4.652 -5.224,4.652c-4.614,0 -6.491,-0.04 -6.491,-6.653l9.143,0zm-2.693,9.674c5.101,0 8.285,-0.489 8.285,-7.673c0,-3.144 -1.673,-4.98 -5.592,-4.98l-9.143,0c0,-5.102 0.939,-6.368 4.122,-6.368c3.756,0 7.144,-0.041 10.206,0.409l0,-2.287c-3.307,-0.938 -6.818,-1.142 -10.206,-1.142c-5.509,0 -7.142,2.653 -7.142,11.143c0,9.673 2.775,10.898 9.47,10.898"/>
     </g>
     <g id="g3370">
      <path fill="#2d2c2e" fill-rule="nonzero" id="path3372" d="m190.652954,589.49118l3.021,0l0,-24.245c0,-3.552 0.938,-4.368 2.326,-4.694c0,0 3.347,-0.858 3.632,-0.858l0,-2.163l-3.591,0c-3.143,0 -5.388,1.959 -5.388,7.715l0,24.245z"/>
     </g>
     <g id="g3374">
      <path fill="#2d2c2e" fill-rule="nonzero" id="path3376" d="m207.10025,560.306671c3.266,0 9.062,2.082 9.062,2.082l0,5.837l-9.062,-0.653c-1.755,-0.163 -2.408,-1.347 -2.408,-2.654l0,-2.041c0,-1.959 1.02,-2.571 2.408,-2.571m-5.429,4.857c0,3.266 2.041,5.429 5.429,5.429c0,0 9.062,-0.041 9.062,0c0,0 0.041,2.694 0,2.735c0,2.49 -1.307,3.347 -3.348,3.347c-2.939,0 -6.489,-0.204 -10.449,-0.49l0,2.204c2.898,0.816 6.531,1.184 10.572,1.225c3.388,0.041 6.245,-1.796 6.245,-6.286l0,-15.796l-2.245,0l-0.775,2.612c-0.083,0 -5.348,-2.858 -9.062,-2.858c-2.979,0 -5.429,1.919 -5.429,5.388l0,2.49z"/>
     </g>
     <g id="g3378">
      <path fill="#2d2c2e" fill-rule="nonzero" id="path3380" d="m234.649048,560.225586c2.612,0 4.123,1.592 4.123,8.245c0,5.306 -1.47,7.959 -4.123,7.959c-3.225,0 -5.837,-0.979 -8.041,-1.878l0,-13.265c2.816,-0.735 4.898,-1.061 8.041,-1.061m-10.979,18.979l2.163,0l0.775,-2.408c1.062,0.776 5.266,2.654 8.041,2.654c5.919,0 7.144,-6 7.144,-10.98c0,-5.552 -0.98,-11.266 -7.144,-11.266c-1.837,0 -5.429,0.572 -8.041,1.632l0,-7.326l-2.938,0l0,27.694z"/>
     </g>
     <g id="g3382">
      <path fill="#2d2c2e" fill-rule="nonzero" id="path3384" d="m257.258453,560.225586c2.612,0 4.123,1.592 4.123,8.245c0,5.306 -1.47,7.959 -4.123,7.959c-3.225,0 -5.837,-0.979 -8.041,-1.878l0,-13.265c2.816,-0.735 4.898,-1.061 8.041,-1.061m-10.979,18.979l2.163,0l0.775,-2.408c1.062,0.776 5.266,2.654 8.041,2.654c5.919,0 7.144,-6 7.144,-10.98c0,-5.552 -0.98,-11.266 -7.144,-11.266c-1.837,0 -5.429,0.572 -8.041,1.632l0,-7.326l-2.938,0l0,27.694z"/>
     </g>
     <g id="g3386">
      <path fill="#2d2c2e" fill-rule="nonzero" id="path3388" d="m280.235931,569.694397c1.796,0 2.572,0.653 2.572,2.001c0,4.285 -0.816,4.652 -5.224,4.652c-4.614,0 -6.491,-0.04 -6.491,-6.653l9.143,0zm-2.693,9.674c5.101,0 8.285,-0.489 8.285,-7.673c0,-3.144 -1.673,-4.98 -5.592,-4.98l-9.143,0c0,-5.102 0.939,-6.368 4.122,-6.368c3.756,0 7.144,-0.041 10.206,0.409l0,-2.287c-3.307,-0.938 -6.818,-1.142 -10.206,-1.142c-5.509,0 -7.142,2.653 -7.142,11.143c0,9.673 2.775,10.898 9.47,10.898"/>
     </g>
     <g id="g3390">
      <path fill="#2d2c2e" fill-rule="nonzero" id="path3392" d="m289.90683,579.205078l2.122,0l0.899,-2.734c2.489,1.428 4.734,2.979 8.082,2.979c1.183,0 2.53,-0.082 3.02,-0.326l0,-2.981c-0.49,0.124 -1.837,0.246 -3.02,0.246c-3.266,0 -4.94,-0.858 -8.082,-2.368l0,-16.49l-3.021,0l0,21.674z"/>
     </g>
     <g id="g3394">
      <path fill="#2d2c2e" fill-rule="nonzero" id="path3396" d="m306.476227,574.021484c0,3.347 1.429,5.388 5.633,5.388c2.122,0 8.53,-0.45 10.653,-0.654l0,-2.326l-10.653,0c-2.612,0 -2.612,-1.02 -2.612,-2.408l0,-1.878c0,-2.245 1.101,-2.326 2.612,-2.326l6.449,0c3.551,0 5.306,-2.204 5.306,-5.266l0,-2c0,-4.449 -2.694,-5.224 -5.306,-5.224c-2,0 -9.633,0.612 -11.185,0.775l0,2.245l11.185,0c0,0 2.285,-0.245 2.285,2.204l0,2c0,1.429 -0.489,2.245 -2.285,2.245l-6.449,0c-3.837,0 -5.633,1.143 -5.633,5.347l0,1.878z"/>
     </g>
     <text font-style="normal" font-weight="normal" font-size="14px" font-family="sans-serif" fill="#000000" stroke-width="1px" transform="translate(-261.6000061035156,209.60000610351562) scale(1,-1) " id="text3544" y="-325.9389" x="453.46402" xml:space="preserve">
      <tspan font-style="normal" font-weight="300" font-size="14px" font-family="Exo" y="-325.9389" x="453.46402" id="tspan3546">engineering solutions</tspan>
     </text>
    </g>
   </g>
   <g id="g3468">
    <g id="g3470">
     <g id="g3476">
      <g id="g3478"/>
     </g>
    </g>
   </g>
   <g transform="matrix(0.72323107,0,0,0.72323107,7.00282,107.44118) " id="g3549">
    <path fill="url(#linearGradient3480)" d="m93.956856,637.620577l-19.542,-0.001l0,-17.56l23.709,0c0,0 5.273,-0.348 5.273,-3.995l0,0l0,-7.978c0,0 -0.181,-3.24 -4.393,-4.513l0,0c0,0 10.497,-3.866 21.087,0.991l0,0c0,0 4.774,27.881 -14.808,32.324l0,0c0,0 -3.157,0.732 -11.311,0.732l0,0c-0.005,0 -0.009,0 -0.015,0" id="path3490"/>
    <g id="g3492">
     <g id="g3494">
      <g id="g3500">
       <g id="g3502">
        <path fill="url(#linearGradient3504)" d="m42.656856,607.179577c0,0 -10.647,-5.218 -19.549,-0.517l0,0c0,0 -0.323,-7.694 13.365,-19.225l0,0c0,0 5.926,1.211 13.628,5.434l0,0c0,0 8.44,5.711 19.023,2.629l0,0c0,0 4.612,-1.562 8.368,-3.339l0,0c0,0 12.048,-6.75 24.215,-5.287l0,0c0,0 9.163,0.409 15.04,8.352l0,0c0,0 3.012,3.937 3.641,11.774l0,0c0,0 -12.985,-5.019 -22.969,-3.194l0,0c0,0 -8.004,0.63 -20.444,4.871l0,0c0,0 -6.07,2.889 -15.197,2.89l0,0c-5.487,0 -12.077,-1.044 -19.121,-4.388" id="path3514"/>
       </g>
      </g>
     </g>
    </g>
    <g id="g3516">
     <g id="g3518">
      <g id="g3524">
       <g id="g3526">
        <path fill="url(#linearGradient3528)" d="m22.229856,666.200577c0,0 -11.304,-0.666 -16.978,-13.997l0,0c0,0 -4.681,-9.579 -4.681,-22.329l0,0c0,0 -0.826,-10.084 2.833,-22.533l0,0c0,0 4.008,-13.909 13.296,-18.465l0,0c0,0 8.545,-4.721 21.816,-0.909l0,0c0,0 -11.859,9.988 -15.857,19.656l0,0c0,0 -6.607,13.572 -3.304,30.078l0,0c0,0 0.557,11.23 12.64,11.23l0,0c0,0 15.019,-1.194 22.635,-3.792l0,0l0,16.267c0,0 -8.429,5.136 -24.883,5.136l0,0c-2.344,0 -4.848,-0.104 -7.517,-0.342" id="path3538"/>
       </g>
      </g>
     </g>
    </g>
   </g>
   <text font-style="normal" font-weight="normal" font-size="32px" font-family="sans-serif" fill="#000000" stroke-width="1px" transform="translate(-261.6000061035156,209.60000610351562) scale(1,-1) " id="text3540" y="-214.79378" x="500.73999" xml:space="preserve"/>
  </g>
 </g>
</svg>