<?xml version="1.0" encoding="UTF-8" standalone="no"?>
<!-- Created with Inkscape (http://www.inkscape.org/) -->

<svg
   version="1.1"
   id="svg2"
   width="530.612"
   height="152.51466"
   viewBox="0 0 530.612 152.51466"
   sodipodi:docname="impact labs - logo landscape gradient.ai"
   xmlns:inkscape="http://www.inkscape.org/namespaces/inkscape"
   xmlns:sodipodi="http://sodipodi.sourceforge.net/DTD/sodipodi-0.dtd"
   xmlns="http://www.w3.org/2000/svg"
   xmlns:svg="http://www.w3.org/2000/svg">
  <defs
     id="defs6">
    <linearGradient
       x1="0"
       y1="0"
       x2="1"
       y2="0"
       gradientUnits="userSpaceOnUse"
       gradientTransform="matrix(373.34213,215.54918,215.54918,-373.34213,36.552898,-134.03423)"
       spreadMethod="pad"
       id="linearGradient30">
      <stop
         style="stop-opacity:1;stop-color:#1b2b46"
         offset="0"
         id="stop22" />
      <stop
         style="stop-opacity:1;stop-color:#1b2b46"
         offset="0.83"
         id="stop24" />
      <stop
         style="stop-opacity:1;stop-color:#770a5a"
         offset="0.9"
         id="stop26" />
      <stop
         style="stop-opacity:1;stop-color:#770a5a"
         offset="1"
         id="stop28" />
    </linearGradient>
    <linearGradient
       x1="0"
       y1="0"
       x2="1"
       y2="0"
       gradientUnits="userSpaceOnUse"
       gradientTransform="matrix(373.34222,215.54924,215.54924,-373.34222,22.605902,-82.172752)"
       spreadMethod="pad"
       id="linearGradient54">
      <stop
         style="stop-opacity:1;stop-color:#1b2b46"
         offset="0"
         id="stop46" />
      <stop
         style="stop-opacity:1;stop-color:#1b2b46"
         offset="0.83"
         id="stop48" />
      <stop
         style="stop-opacity:1;stop-color:#770a5a"
         offset="0.9"
         id="stop50" />
      <stop
         style="stop-opacity:1;stop-color:#770a5a"
         offset="1"
         id="stop52" />
    </linearGradient>
    <linearGradient
       x1="0"
       y1="0"
       x2="1"
       y2="0"
       gradientUnits="userSpaceOnUse"
       gradientTransform="matrix(373.34601,215.55142,215.55142,-373.34601,37.560455,-141.26408)"
       spreadMethod="pad"
       id="linearGradient78">
      <stop
         style="stop-opacity:1;stop-color:#1b2b46"
         offset="0"
         id="stop70" />
      <stop
         style="stop-opacity:1;stop-color:#1b2b46"
         offset="0.83"
         id="stop72" />
      <stop
         style="stop-opacity:1;stop-color:#770a5a"
         offset="0.9"
         id="stop74" />
      <stop
         style="stop-opacity:1;stop-color:#770a5a"
         offset="1"
         id="stop76" />
    </linearGradient>
    <linearGradient
       x1="0"
       y1="0"
       x2="1"
       y2="0"
       gradientUnits="userSpaceOnUse"
       gradientTransform="matrix(373.34158,215.54887,215.54887,-373.34158,22.151016,-84.641571)"
       spreadMethod="pad"
       id="linearGradient102">
      <stop
         style="stop-opacity:1;stop-color:#1b2b46"
         offset="0"
         id="stop94" />
      <stop
         style="stop-opacity:1;stop-color:#1b2b46"
         offset="0.83"
         id="stop96" />
      <stop
         style="stop-opacity:1;stop-color:#770a5a"
         offset="0.9"
         id="stop98" />
      <stop
         style="stop-opacity:1;stop-color:#770a5a"
         offset="1"
         id="stop100" />
    </linearGradient>
    <linearGradient
       x1="0"
       y1="0"
       x2="1"
       y2="0"
       gradientUnits="userSpaceOnUse"
       gradientTransform="matrix(373.3515,215.5546,215.5546,-373.3515,30.211956,-108.70704)"
       spreadMethod="pad"
       id="linearGradient126">
      <stop
         style="stop-opacity:1;stop-color:#1b2b46"
         offset="0"
         id="stop118" />
      <stop
         style="stop-opacity:1;stop-color:#1b2b46"
         offset="0.83"
         id="stop120" />
      <stop
         style="stop-opacity:1;stop-color:#770a5a"
         offset="0.9"
         id="stop122" />
      <stop
         style="stop-opacity:1;stop-color:#770a5a"
         offset="1"
         id="stop124" />
    </linearGradient>
    <linearGradient
       x1="0"
       y1="0"
       x2="1"
       y2="0"
       gradientUnits="userSpaceOnUse"
       gradientTransform="matrix(665.66089,384.31949,384.31949,-665.66089,-32.34935,12.573046)"
       spreadMethod="pad"
       id="linearGradient150">
      <stop
         style="stop-opacity:1;stop-color:#1b2b46"
         offset="0"
         id="stop142" />
      <stop
         style="stop-opacity:1;stop-color:#1b2b46"
         offset="0.83"
         id="stop144" />
      <stop
         style="stop-opacity:1;stop-color:#770a5a"
         offset="0.9"
         id="stop146" />
      <stop
         style="stop-opacity:1;stop-color:#770a5a"
         offset="1"
         id="stop148" />
    </linearGradient>
    <linearGradient
       x1="0"
       y1="0"
       x2="1"
       y2="0"
       gradientUnits="userSpaceOnUse"
       gradientTransform="matrix(432.23297,249.54984,249.54984,-432.23297,-26.357801,39.900871)"
       spreadMethod="pad"
       id="linearGradient174">
      <stop
         style="stop-opacity:1;stop-color:#1b2b46"
         offset="0"
         id="stop166" />
      <stop
         style="stop-opacity:1;stop-color:#1b2b46"
         offset="0.83"
         id="stop168" />
      <stop
         style="stop-opacity:1;stop-color:#770a5a"
         offset="0.9"
         id="stop170" />
      <stop
         style="stop-opacity:1;stop-color:#770a5a"
         offset="1"
         id="stop172" />
    </linearGradient>
    <linearGradient
       x1="0"
       y1="0"
       x2="1"
       y2="0"
       gradientUnits="userSpaceOnUse"
       gradientTransform="matrix(390.51965,225.46663,225.46663,-390.51965,-14.073096,0.9194087)"
       spreadMethod="pad"
       id="linearGradient198">
      <stop
         style="stop-opacity:1;stop-color:#1b2b46"
         offset="0"
         id="stop190" />
      <stop
         style="stop-opacity:1;stop-color:#1b2b46"
         offset="0.83"
         id="stop192" />
      <stop
         style="stop-opacity:1;stop-color:#770a5a"
         offset="0.9"
         id="stop194" />
      <stop
         style="stop-opacity:1;stop-color:#770a5a"
         offset="1"
         id="stop196" />
    </linearGradient>
    <linearGradient
       x1="0"
       y1="0"
       x2="1"
       y2="0"
       gradientUnits="userSpaceOnUse"
       gradientTransform="matrix(450.41446,260.04691,260.04691,-450.41446,-24.441288,-34.533501)"
       spreadMethod="pad"
       id="linearGradient222">
      <stop
         style="stop-opacity:1;stop-color:#1b2b46"
         offset="0"
         id="stop214" />
      <stop
         style="stop-opacity:1;stop-color:#1b2b46"
         offset="0.83"
         id="stop216" />
      <stop
         style="stop-opacity:1;stop-color:#770a5a"
         offset="0.9"
         id="stop218" />
      <stop
         style="stop-opacity:1;stop-color:#770a5a"
         offset="1"
         id="stop220" />
    </linearGradient>
    <linearGradient
       x1="0"
       y1="0"
       x2="1"
       y2="0"
       gradientUnits="userSpaceOnUse"
       gradientTransform="matrix(416.94214,240.72166,240.72166,-416.94214,-11.543865,-49.098076)"
       spreadMethod="pad"
       id="linearGradient246">
      <stop
         style="stop-opacity:1;stop-color:#1b2b46"
         offset="0"
         id="stop238" />
      <stop
         style="stop-opacity:1;stop-color:#1b2b46"
         offset="0.83"
         id="stop240" />
      <stop
         style="stop-opacity:1;stop-color:#770a5a"
         offset="0.9"
         id="stop242" />
      <stop
         style="stop-opacity:1;stop-color:#770a5a"
         offset="1"
         id="stop244" />
    </linearGradient>
    <linearGradient
       x1="0"
       y1="0"
       x2="1"
       y2="0"
       gradientUnits="userSpaceOnUse"
       gradientTransform="matrix(428.34668,247.30608,247.30608,-428.34668,-12.929314,-72.773178)"
       spreadMethod="pad"
       id="linearGradient270">
      <stop
         style="stop-opacity:1;stop-color:#1b2b46"
         offset="0"
         id="stop262" />
      <stop
         style="stop-opacity:1;stop-color:#1b2b46"
         offset="0.83"
         id="stop264" />
      <stop
         style="stop-opacity:1;stop-color:#770a5a"
         offset="0.9"
         id="stop266" />
      <stop
         style="stop-opacity:1;stop-color:#770a5a"
         offset="1"
         id="stop268" />
    </linearGradient>
    <linearGradient
       x1="0"
       y1="0"
       x2="1"
       y2="0"
       gradientUnits="userSpaceOnUse"
       gradientTransform="matrix(482.86005,278.77939,278.77939,-482.86005,-42.765106,-98.581467)"
       spreadMethod="pad"
       id="linearGradient294">
      <stop
         style="stop-opacity:1;stop-color:#1b2b46"
         offset="0"
         id="stop286" />
      <stop
         style="stop-opacity:1;stop-color:#1b2b46"
         offset="0.83"
         id="stop288" />
      <stop
         style="stop-opacity:1;stop-color:#770a5a"
         offset="0.9"
         id="stop290" />
      <stop
         style="stop-opacity:1;stop-color:#770a5a"
         offset="1"
         id="stop292" />
    </linearGradient>
    <linearGradient
       x1="0"
       y1="0"
       x2="1"
       y2="0"
       gradientUnits="userSpaceOnUse"
       gradientTransform="matrix(696.71008,402.24576,402.24576,-696.71008,-161.80103,-186.65907)"
       spreadMethod="pad"
       id="linearGradient318">
      <stop
         style="stop-opacity:1;stop-color:#1b2b46"
         offset="0"
         id="stop310" />
      <stop
         style="stop-opacity:1;stop-color:#1b2b46"
         offset="0.83"
         id="stop312" />
      <stop
         style="stop-opacity:1;stop-color:#770a5a"
         offset="0.9"
         id="stop314" />
      <stop
         style="stop-opacity:1;stop-color:#770a5a"
         offset="1"
         id="stop316" />
    </linearGradient>
    <linearGradient
       x1="0"
       y1="0"
       x2="1"
       y2="0"
       gradientUnits="userSpaceOnUse"
       gradientTransform="matrix(416.9422,240.72169,240.72169,-416.9422,-3.8478231,-116.42094)"
       spreadMethod="pad"
       id="linearGradient342">
      <stop
         style="stop-opacity:1;stop-color:#1b2b46"
         offset="0"
         id="stop334" />
      <stop
         style="stop-opacity:1;stop-color:#1b2b46"
         offset="0.83"
         id="stop336" />
      <stop
         style="stop-opacity:1;stop-color:#770a5a"
         offset="0.9"
         id="stop338" />
      <stop
         style="stop-opacity:1;stop-color:#770a5a"
         offset="1"
         id="stop340" />
    </linearGradient>
    <linearGradient
       x1="0"
       y1="0"
       x2="1"
       y2="0"
       gradientUnits="userSpaceOnUse"
       gradientTransform="matrix(418.86172,241.82993,241.82993,-418.86172,-7.3142271,-131.7733)"
       spreadMethod="pad"
       id="linearGradient366">
      <stop
         style="stop-opacity:1;stop-color:#1b2b46"
         offset="0"
         id="stop358" />
      <stop
         style="stop-opacity:1;stop-color:#1b2b46"
         offset="0.83"
         id="stop360" />
      <stop
         style="stop-opacity:1;stop-color:#770a5a"
         offset="0.9"
         id="stop362" />
      <stop
         style="stop-opacity:1;stop-color:#770a5a"
         offset="1"
         id="stop364" />
    </linearGradient>
    <linearGradient
       x1="0"
       y1="0"
       x2="1"
       y2="0"
       gradientUnits="userSpaceOnUse"
       gradientTransform="matrix(440.44568,254.29143,254.29143,-440.44568,-18.049034,-167.52318)"
       spreadMethod="pad"
       id="linearGradient390">
      <stop
         style="stop-opacity:1;stop-color:#1b2b46"
         offset="0"
         id="stop382" />
      <stop
         style="stop-opacity:1;stop-color:#1b2b46"
         offset="0.83"
         id="stop384" />
      <stop
         style="stop-opacity:1;stop-color:#770a5a"
         offset="0.9"
         id="stop386" />
      <stop
         style="stop-opacity:1;stop-color:#770a5a"
         offset="1"
         id="stop388" />
    </linearGradient>
    <linearGradient
       x1="0"
       y1="0"
       x2="1"
       y2="0"
       gradientUnits="userSpaceOnUse"
       gradientTransform="matrix(373.3414,215.54877,215.54877,-373.3414,30.105877,-113.43515)"
       spreadMethod="pad"
       id="linearGradient414">
      <stop
         style="stop-opacity:1;stop-color:#1b2b46"
         offset="0"
         id="stop406" />
      <stop
         style="stop-opacity:1;stop-color:#1b2b46"
         offset="0.83"
         id="stop408" />
      <stop
         style="stop-opacity:1;stop-color:#770a5a"
         offset="0.9"
         id="stop410" />
      <stop
         style="stop-opacity:1;stop-color:#770a5a"
         offset="1"
         id="stop412" />
    </linearGradient>
  </defs>
  <sodipodi:namedview
     id="namedview4"
     pagecolor="#ffffff"
     bordercolor="#000000"
     borderopacity="0.25"
     inkscape:showpageshadow="2"
     inkscape:pageopacity="0.0"
     inkscape:pagecheckerboard="0"
     inkscape:deskcolor="#d1d1d1" />
  <g
     id="g8"
     inkscape:groupmode="layer"
     inkscape:label="impact labs - logo landscape gradient"
     transform="matrix(1.3333333,0,0,-1.3333333,0,152.51467)">
    <g
       id="g10">
      <g
         id="g12">
        <g
           id="g18">
          <g
             id="g20">
            <path
               d="M 385.849,78.308 C 380.768,76.894 377.796,71.63 379.21,66.55 v 0 c 1.414,-5.08 6.678,-8.053 11.757,-6.639 v 0 c 4.215,1.172 6.979,4.995 6.991,9.164 v 0 0.058 c -0.002,0.838 -0.116,1.689 -0.351,2.536 v 0 c -1.175,4.224 -5.013,6.991 -9.193,6.991 v 0 c -0.848,0 -1.709,-0.114 -2.565,-0.352"
               style="fill:url(#linearGradient30);stroke:none"
               id="path32" />
          </g>
        </g>
      </g>
    </g>
    <g
       id="g34">
      <g
         id="g36">
        <g
           id="g42">
          <g
             id="g44">
            <path
               d="m 349.197,114.386 c -0.681,-0.007 -1.372,-0.102 -2.06,-0.293 v 0 c -4.233,-1.179 -6.71,-5.566 -5.532,-9.799 v 0 c 1.178,-4.234 5.565,-6.711 9.798,-5.532 v 0 c 4.234,1.178 6.711,5.564 5.533,9.798 v 0 c -0.973,3.493 -4.13,5.791 -7.583,5.826 v 0 z"
               style="fill:url(#linearGradient54);stroke:none"
               id="path56" />
          </g>
        </g>
      </g>
    </g>
    <g
       id="g58">
      <g
         id="g60">
        <g
           id="g66">
          <g
             id="g68">
            <path
               d="m 364.41,52.781 c -2.54,-0.707 -4.026,-3.339 -3.319,-5.879 v 0 c 0.706,-2.54 3.339,-4.027 5.879,-3.319 v 0 c 2.54,0.706 4.026,3.339 3.32,5.878 v 0 c -0.588,2.113 -2.507,3.496 -4.598,3.496 v 0 c -0.423,0 -0.854,-0.057 -1.282,-0.176"
               style="fill:url(#linearGradient78);stroke:none"
               id="path80" />
          </g>
        </g>
      </g>
    </g>
    <g
       id="g82">
      <g
         id="g84">
        <g
           id="g90">
          <g
             id="g92">
            <path
               d="m 329.64,96.447 c -1.693,-0.472 -2.683,-2.227 -2.213,-3.92 v 0 c 0.472,-1.694 2.227,-2.685 3.92,-2.213 v 0 c 1.693,0.471 2.684,2.226 2.213,3.92 v 0 c -0.392,1.407 -1.671,2.33 -3.065,2.33 v 0 c -0.283,0 -0.569,-0.038 -0.855,-0.117"
               style="fill:url(#linearGradient102);stroke:none"
               id="path104" />
          </g>
        </g>
      </g>
    </g>
    <g
       id="g106">
      <g
         id="g108">
        <g
           id="g114">
          <g
             id="g116">
            <path
               d="m 381.458,101.203 c -3.387,-0.942 -5.369,-4.452 -4.426,-7.84 v 0 c 0.942,-3.387 4.452,-5.369 7.839,-4.426 v 0 c 3.386,0.942 5.368,4.452 4.426,7.839 v 0 c -0.784,2.817 -3.343,4.662 -6.13,4.662 v 0 c -0.564,0 -1.138,-0.076 -1.709,-0.235"
               style="fill:url(#linearGradient126);stroke:none"
               id="path128" />
          </g>
        </g>
      </g>
    </g>
    <g
       id="g130">
      <g
         id="g132">
        <g
           id="g138">
          <g
             id="g140">
            <path
               d="M 1.05,50.288 C 0.353,50.288 0,49.933 0,49.236 v 0 -34.345 C 0,14.223 0.383,13.84 1.05,13.84 v 0 h 0.692 c 0.726,0 1.05,0.324 1.05,1.051 v 0 34.345 c 0,0.727 -0.324,1.052 -1.05,1.052 v 0 z"
               style="fill:url(#linearGradient150);stroke:none"
               id="path152" />
          </g>
        </g>
      </g>
    </g>
    <g
       id="g154">
      <g
         id="g156">
        <g
           id="g162">
          <g
             id="g164">
            <path
               d="M 1.05,58.028 C 0.353,58.028 0,57.674 0,56.977 v 0 -2.09 c 0,-0.668 0.383,-1.051 1.05,-1.051 v 0 h 0.692 c 0.726,0 1.05,0.325 1.05,1.051 v 0 2.09 c 0,0.727 -0.324,1.051 -1.05,1.051 v 0 z"
               style="fill:url(#linearGradient174);stroke:none"
               id="path176" />
          </g>
        </g>
      </g>
    </g>
    <g
       id="g178">
      <g
         id="g180">
        <g
           id="g186">
          <g
             id="g188">
            <path
               d="m 41.053,46.947 c -0.237,-0.124 -0.441,-0.156 -0.603,-0.1 v 0 c -0.134,0.045 -0.24,0.146 -0.313,0.302 v 0 c -1.595,2.734 -4.312,4.067 -8.306,4.067 v 0 c -4.842,0 -10.126,-1.467 -15.281,-4.24 v 0 c -0.27,-0.153 -0.452,-0.12 -0.557,-0.065 v 0 c -0.143,0.073 -0.233,0.236 -0.251,0.454 v 0 l -0.138,2.052 c -0.116,0.673 -0.351,0.871 -1.046,0.871 v 0 h -0.325 c -0.631,0 -0.926,-0.334 -0.926,-1.049 v 0 -34.348 c 0,-0.695 0.353,-1.049 1.05,-1.049 v 0 c 0.007,0 0.014,0 0.021,-0.002 v 0 h 0.671 c 0.723,0 1.051,0.324 1.064,1.053 v 0 28.984 c 0.018,0.389 0.164,0.617 0.475,0.747 v 0 c 6.189,2.943 10.229,4.09 14.404,4.09 v 0 c 2.494,0 4.314,-0.608 5.563,-1.86 v 0 c 1.332,-1.336 1.977,-3.363 1.97,-6.201 v 0 -25.762 c 0,-0.727 0.323,-1.05 1.048,-1.05 v 0 h 0.649 c 0.695,0 1.053,0.355 1.065,1.052 v 0 25.659 c 0.013,1.126 -0.074,2.158 -0.292,3.45 v 0 c -0.07,0.356 0.058,0.607 0.392,0.763 v 0 c 6.235,2.841 10.378,3.948 14.778,3.948 v 0 c 5.124,0 7.518,-2.561 7.533,-8.061 v 0 -25.761 c 0,-0.727 0.323,-1.051 1.05,-1.051 v 0 h 0.704 c 0.698,0 1.052,0.354 1.052,1.051 v 0 26.406 c 0,6.489 -3.275,9.919 -9.471,9.919 v 0 c -5.166,0 -10.394,-1.397 -15.98,-4.269"
               style="fill:url(#linearGradient198);stroke:none"
               id="path200" />
          </g>
        </g>
      </g>
    </g>
    <g
       id="g202">
      <g
         id="g204">
        <g
           id="g210">
          <g
             id="g212">
            <path
               d="M 77.257,49.039 C 76.678,48.893 76.41,48.548 76.41,47.952 v 0 -46.9 C 76.41,0.388 76.787,0.005 77.447,0 v 0 c 0.004,0.001 0.01,0.001 0.015,0.001 v 0 h 0.706 c 0.696,0 1.05,0.354 1.05,1.051 v 0 7.809 c 0,0.399 10e-4,0.771 0.003,1.121 v 0 c 0.005,2.028 0.008,3.367 -0.198,5.14 v 0 c -0.046,0.238 -0.006,0.414 0.12,0.515 v 0 c 0.102,0.08 0.302,0.14 0.678,-0.021 v 0 c 4.809,-1.783 9.419,-2.688 13.693,-2.688 v 0 c 4.926,0 8.205,1.321 10.316,4.159 v 0 c 2.235,3.004 3.276,7.787 3.276,15.056 v 0 c 0,13.725 -4.241,19.073 -15.13,19.073 v 0 c -4.513,0 -9.741,-0.773 -14.719,-2.177 M 79.699,18.057 C 79.346,18.159 79.2,18.383 79.2,18.833 v 0 l 0.015,27.532 c 0,0.491 0.354,0.656 0.663,0.746 v 0 c 4.092,1.102 7.917,1.618 12.02,1.618 v 0 c 0.06,0 0.119,0 0.178,-10e-4 v 0 c 8.835,-0.029 12.119,-4.54 12.119,-16.642 v 0 c 0,-6.308 -0.796,-10.433 -2.503,-12.983 v 0 c -1.663,-2.485 -4.316,-3.645 -8.348,-3.646 v 0 c -0.006,-0.001 -0.011,-0.001 -0.017,-0.001 v 0 c -4.392,0 -8.323,0.954 -13.628,2.601"
               style="fill:url(#linearGradient222);stroke:none"
               id="path224" />
          </g>
        </g>
      </g>
    </g>
    <g
       id="g226">
      <g
         id="g228">
        <g
           id="g234">
          <g
             id="g236">
            <path
               d="m 115.696,50.117 c -0.334,-0.058 -0.543,-0.157 -0.653,-0.313 v 0 c -0.12,-0.173 -0.14,-0.443 -0.062,-0.876 v 0 c 0.116,-0.587 0.358,-0.971 1.157,-0.875 v 0 c 4.527,0.305 11.009,0.661 14.395,0.661 v 0 c 3.567,0 5.714,-0.47 7.181,-1.574 v 0 c 1.621,-1.219 2.381,-3.271 2.388,-6.458 v 0 -4.194 c 0,-0.361 -0.232,-0.593 -0.593,-0.593 v 0 H 124.18 c -6.916,0 -10.883,-3.329 -10.883,-9.129 v 0 -3.311 c 0,-6.342 4.22,-10.13 11.288,-10.13 v 0 c 7.025,0 11.723,2.78 15.03,5.203 v 0 c 0.21,0.211 0.394,0.195 0.482,0.161 v 0 c 0.096,-0.035 0.261,-0.147 0.296,-0.513 v 0 l 0.215,-3.365 c 0.09,-0.82 0.413,-0.971 1.018,-0.971 v 0 h 0.295 c 0.674,0 0.989,0.334 0.989,1.051 v 0 25.79 c 0,7.678 -3.279,10.534 -12.094,10.534 v 0 c -3.561,0 -10.069,-0.385 -15.12,-1.098 m 0.485,-26.463 v 2.883 c 0,4.514 2.793,6.848 8.299,6.937 v 0 l 15.028,0.248 c 0.363,0 0.595,-0.233 0.595,-0.594 v 0 -11.256 c 0,-0.24 -0.102,-0.653 -0.293,-0.807 v 0 c -4.036,-3.237 -9.619,-5.172 -14.94,-5.176 v 0 c -0.005,0 -0.01,0 -0.016,0 v 0 c -5.593,0 -8.673,2.757 -8.673,7.765"
               style="fill:url(#linearGradient246);stroke:none"
               id="path248" />
          </g>
        </g>
      </g>
    </g>
    <g
       id="g250">
      <g
         id="g252">
        <g
           id="g258">
          <g
             id="g260">
            <path
               d="m 150.899,32.072 c 0,-7.191 1.216,-11.911 3.823,-14.856 v 0 c 2.589,-2.925 6.73,-4.288 13.031,-4.288 v 0 c 0.005,0 0.011,0 0.015,-0.001 v 0 c 3.263,0.001 6.928,0.416 10.323,1.167 v 0 c 0.66,0.131 0.924,0.532 0.81,1.227 v 0 c -0.109,0.631 -0.5,0.884 -1.234,0.783 v 0 c -3.345,-0.502 -7.576,-0.691 -9.457,-0.691 v 0 c -5.543,0 -8.978,1.082 -11.137,3.51 v 0 c -2.235,2.513 -3.231,6.568 -3.231,13.147 v 0 c 0,6.574 0.996,10.625 3.231,13.137 v 0 c 2.159,2.426 5.595,3.507 11.137,3.507 v 0 c 2.215,0 5.853,-0.201 8.605,-0.647 v 0 c 0.67,-0.052 1.042,0.195 1.218,0.826 v 0 c 0.171,0.662 -0.069,1.059 -0.755,1.246 v 0 c -3.772,0.999 -8.282,1.077 -9.574,1.077 v 0 c -12.25,0 -16.805,-5.188 -16.805,-19.144"
               style="fill:url(#linearGradient270);stroke:none"
               id="path272" />
          </g>
        </g>
      </g>
    </g>
    <g
       id="g274">
      <g
         id="g276">
        <g
           id="g282">
          <g
             id="g284">
            <path
               d="m 188.833,64.21 c -0.64,0 -1.009,-0.368 -1.009,-1.008 v 0 -12.318 c 0,-0.454 -0.194,-0.67 -0.628,-0.698 v 0 l -4.941,-0.213 c -0.777,-0.045 -1.081,-0.338 -1.081,-1.045 v 0 c 0,-0.721 0.297,-0.99 1.093,-0.99 v 0 h 4.923 c 0.393,0 0.636,-0.243 0.636,-0.636 v 0 -25.822 c 0,-5.35 2.956,-8.179 8.547,-8.179 v 0 c 0.006,0 0.012,0 0.016,-10e-4 v 0 c 1.231,0.003 3.845,0.191 5.841,0.423 v 0 c 0.326,0.04 0.562,0.153 0.699,0.335 v 0 c 0.152,0.198 0.2,0.491 0.145,0.872 v 0 c -0.111,0.766 -0.482,0.912 -1.127,0.912 v 0 h -5.4 c -3.934,0 -5.93,1.989 -5.93,5.915 v 0 25.543 c 0,0.394 0.244,0.637 0.638,0.637 v 0 h 11.377 c 0.808,0 1.094,0.29 1.094,1.108 v 0 c 0,0.921 -0.267,1.217 -1.094,1.217 v 0 h -11.377 c -0.393,0 -0.637,0.243 -0.637,0.638 v 0 12.302 c 0,0.668 -0.339,1.008 -1.009,1.008 v 0 z"
               style="fill:url(#linearGradient294);stroke:none"
               id="path296" />
          </g>
        </g>
      </g>
    </g>
    <g
       id="g298">
      <g
         id="g300">
        <g
           id="g306">
          <g
             id="g308">
            <path
               d="m 223.549,64.326 c -0.695,0 -1.049,-0.354 -1.049,-1.05 v 0 -41.915 c 0,-5.031 2.967,-8.036 7.934,-8.036 v 0 c 1.244,0 3.055,0.104 4.296,0.332 v 0 c 0.579,0.099 0.833,0.42 0.805,1.008 v 0 l -0.016,0.374 c -0.03,0.718 -0.659,0.825 -1.03,0.825 v 0 h -3.267 c -3.824,0 -5.929,2.102 -5.929,5.918 v 0 l 0.014,41.494 c 0,0.726 -0.325,1.05 -1.052,1.05 v 0 z"
               style="fill:url(#linearGradient318);stroke:none"
               id="path320" />
          </g>
        </g>
      </g>
    </g>
    <g
       id="g322">
      <g
         id="g324">
        <g
           id="g330">
          <g
             id="g332">
            <path
               d="m 239.999,50.117 c -0.334,-0.058 -0.542,-0.157 -0.652,-0.311 v 0 c -0.122,-0.174 -0.141,-0.445 -0.063,-0.878 v 0 c 0.116,-0.586 0.346,-0.961 1.158,-0.875 v 0 c 4.525,0.305 11.007,0.661 14.394,0.661 v 0 c 3.567,0 5.714,-0.47 7.181,-1.574 v 0 c 1.622,-1.219 2.381,-3.272 2.388,-6.458 v 0 -4.194 c 0,-0.361 -0.232,-0.593 -0.593,-0.593 v 0 h -15.329 c -6.917,0 -10.884,-3.329 -10.884,-9.129 v 0 -3.311 c 0,-6.342 4.22,-10.13 11.29,-10.13 v 0 c 7.025,0 11.722,2.78 15.03,5.203 v 0 c 0.209,0.211 0.394,0.195 0.481,0.161 v 0 c 0.097,-0.035 0.261,-0.147 0.296,-0.513 v 0 l 0.214,-3.365 c 0.091,-0.82 0.414,-0.971 1.019,-0.971 v 0 h 0.294 c 0.675,0 0.99,0.334 0.99,1.051 v 0 25.79 c 0,7.678 -3.279,10.534 -12.094,10.534 v 0 c -3.559,0 -10.069,-0.385 -15.12,-1.098 m 0.485,-26.463 v 2.883 c 0,4.514 2.791,6.848 8.299,6.937 v 0 l 15.029,0.248 c 0.362,0 0.594,-0.233 0.594,-0.594 v 0 -11.256 c 0,-0.239 -0.101,-0.652 -0.293,-0.807 v 0 c -4.035,-3.237 -9.618,-5.172 -14.94,-5.176 v 0 c -0.004,0 -0.01,0 -0.015,0 v 0 c -5.594,0 -8.674,2.757 -8.674,7.765"
               style="fill:url(#linearGradient342);stroke:none"
               id="path344" />
          </g>
        </g>
      </g>
    </g>
    <g
       id="g346">
      <g
         id="g348">
        <g
           id="g354">
          <g
             id="g356">
            <path
               d="m 278.006,64.326 c -0.667,0 -1.05,-0.383 -1.05,-1.05 v 0 -47.088 c 0,-0.596 0.268,-0.941 0.843,-1.087 v 0 c 4.972,-1.401 10.192,-2.173 14.706,-2.176 v 0 c 0.005,0.002 0.01,0.002 0.016,0.002 v 0 c 10.889,0 15.131,5.348 15.131,19.072 v 0 c 0,7.268 -1.042,12.052 -3.277,15.056 v 0 c -2.112,2.837 -5.39,4.16 -10.316,4.16 v 0 c -4.273,0 -8.786,-0.92 -13.605,-2.704 v 0 c -0.371,-0.161 -0.511,-0.1 -0.613,-0.021 v 0 c -0.126,0.103 -0.112,0.559 -0.112,0.559 v 0 c 0,0 0.041,3.227 0.034,5.282 v 0 c 0,0.359 -10e-4,0.737 -10e-4,1.137 v 0 7.808 c 0,0.696 -0.353,1.05 -1.05,1.05 v 0 z m 14.499,-48.915 c -0.024,0 -0.048,0.001 -0.072,0.001 v 0 c -4.089,0 -7.911,0.514 -12.007,1.615 v 0 c -0.309,0.092 -0.663,0.259 -0.663,0.748 v 0 l -0.013,27.533 c 0,0.449 0.144,0.673 0.501,0.776 v 0 c 5.303,1.647 9.232,2.6 13.623,2.6 v 0 c 4.042,0 6.699,-1.159 8.365,-3.646 v 0 c 1.708,-2.55 2.503,-6.675 2.503,-12.981 v 0 c 0,-12.095 -3.281,-16.608 -12.103,-16.644 v 0 c -0.027,-0.002 -0.053,-0.003 -0.079,-0.003 v 0 c -0.019,0 -0.037,0 -0.055,10e-4"
               style="fill:url(#linearGradient366);stroke:none"
               id="path368" />
          </g>
        </g>
      </g>
    </g>
    <g
       id="g370">
      <g
         id="g372">
        <g
           id="g378">
          <g
             id="g380">
            <path
               d="m 315.907,48.368 c -1.558,-1.535 -2.315,-3.777 -2.315,-6.853 v 0 c 0,-5.53 2.817,-8.496 9.133,-9.616 v 0 l 9.431,-1.666 c 5.346,-0.915 7.627,-3.035 7.627,-7.089 v 0 c 0,-5.5 -3.301,-7.592 -12.18,-7.715 v 0 c -4.254,-0.061 -7.919,0.06 -12.251,0.398 v 0 c -0.076,0.008 -0.146,0.011 -0.212,0.011 v 0 c -0.557,0 -0.801,-0.271 -0.877,-0.935 v 0 c -0.046,-0.386 0.011,-0.677 0.169,-0.867 v 0 c 0.137,-0.162 0.356,-0.254 0.649,-0.271 v 0 c 5.168,-0.675 9.556,-0.762 12.803,-0.762 v 0 c 0.005,0 0.01,0 0.015,-10e-4 v 0 c 10.393,0.003 14.633,2.942 14.633,10.142 v 0 c 0,5.383 -2.939,8.303 -9.527,9.465 v 0 l -9.46,1.678 c -5.117,0.901 -7.204,2.995 -7.204,7.228 v 0 c 0,2.357 0.536,3.983 1.69,5.118 v 0 c 1.606,1.581 4.403,2.221 9.385,2.142 v 0 c 4.419,-0.065 9.234,-0.288 12.934,-0.476 v 0 c 0.702,-0.067 1.028,0.215 1.121,0.956 v 0 c 0.039,0.664 -0.24,1.008 -0.905,1.109 v 0 c -4.249,0.463 -9.135,0.773 -13.399,0.851 v 0 c -0.24,0.003 -0.476,0.006 -0.708,0.006 v 0 c -5.218,0 -8.583,-0.913 -10.552,-2.853"
               style="fill:url(#linearGradient390);stroke:none"
               id="path392" />
          </g>
        </g>
      </g>
    </g>
    <g
       id="g394">
      <g
         id="g396">
        <g
           id="g402">
          <g
             id="g404">
            <path
               d="M 349.755,88.908 C 341.288,86.553 336.335,77.779 338.69,69.312 v 0 c 2.356,-8.468 11.13,-13.421 19.597,-11.066 v 0 c 8.468,2.356 13.421,11.131 11.066,19.598 v 0 c -1.959,7.04 -8.356,11.651 -15.322,11.651 v 0 c -1.413,0 -2.848,-0.189 -4.276,-0.587 m -3.222,-9.145 v 0.724 c 0,0.521 0.242,0.763 0.764,0.763 v 0 l 5.712,-0.009 c 3.777,0 5.25,-1.342 5.25,-4.787 v 0 l -0.003,-9.595 c 0,-0.615 -0.298,-0.914 -0.914,-0.914 v 0 h -0.843 c -0.616,0 -0.913,0.299 -0.913,0.914 v 0 0.494 l -0.219,-0.146 c -1.236,-0.827 -3.244,-1.303 -5.51,-1.303 v 0 c -2.792,0 -4.527,1.589 -4.527,4.145 v 0 1.499 c 0,2.3 1.537,3.617 4.219,3.617 v 0 l 1.194,0.002 h 2.397 c 0.452,0 0.663,-0.21 0.663,-0.662 v 0 -0.817 c 0,-0.452 -0.211,-0.663 -0.663,-0.663 v 0 l -3.177,-0.008 c -1.417,-0.055 -2.049,-0.693 -2.049,-2.069 v 0 -0.526 c 0,-1.511 0.859,-2.278 2.553,-2.278 v 0 c 1.015,0 2.986,0.193 4.793,1.483 v 0 c 0.191,0.128 0.31,0.389 0.31,0.677 v 0 l -0.004,6.153 c -0.026,1.892 -0.677,2.486 -2.794,2.544 v 0 h -5.475 c -0.514,0 -0.764,0.249 -0.764,0.762 m 13.642,-12.846 v 13.369 c 0,0.623 0.302,0.926 0.924,0.926 v 0 h 0.852 c 0.623,0 0.925,-0.303 0.925,-0.926 v 0 -13.369 c 0,-0.623 -0.302,-0.925 -0.925,-0.925 v 0 h -0.852 c -0.622,0 -0.924,0.302 -0.924,0.925"
               style="fill:url(#linearGradient414);stroke:none"
               id="path416" />
          </g>
        </g>
      </g>
    </g>
  </g>
</svg>
